<?xml version="1.0" encoding="UTF-8" standalone="no"?>
<svg
   xmlns:dc="http://purl.org/dc/elements/1.1/"
   xmlns:cc="http://creativecommons.org/ns#"
   xmlns:rdf="http://www.w3.org/1999/02/22-rdf-syntax-ns#"
   xmlns:svg="http://www.w3.org/2000/svg"
   xmlns="http://www.w3.org/2000/svg"
   viewBox="0 0 90.279999 225.72"
   height="225.72"
   width="90.279999"
   xml:space="preserve"
   id="svg2"
   version="1.1"><metadata
     id="metadata8"><rdf:RDF><cc:Work
         rdf:about=""><dc:format>image/svg+xml</dc:format><dc:type
           rdf:resource="http://purl.org/dc/dcmitype/StillImage" /></cc:Work></rdf:RDF></metadata><defs
     id="defs6" /><g
     transform="matrix(1.3333333,0,0,-1.3333333,0,225.72)"
     id="g10"><g
       transform="scale(0.1)"
       id="g12"><path
         id="path14"
         style="fill:#ffffff;fill-opacity:1;fill-rule:nonzero;stroke:none"
         d="m 608.664,588.262 c 0,-3.192 1.063,-4.793 3.191,-4.793 2.122,0.531 3.321,1.461 3.594,2.801 0.262,1.32 0.664,2.789 1.199,4.39 0,3.192 -1.335,4.789 -3.992,4.789 -2.668,-0.539 -3.992,-2.929 -3.992,-7.187 z m 1.598,-11.973 c -1.074,1.063 -1.871,1.32 -2.395,0.801 -1.074,0 -1.597,-0.539 -1.597,-1.602 1.058,-1.066 1.859,-1.34 2.394,-0.797 z m -19.164,-12.777 c 1.597,1.058 3.195,2 4.789,2.797 1.597,0.8 2.922,1.722 3.996,2.793 1.058,1.058 0.797,2.398 -0.801,3.988 -2.672,1.058 -3.992,1.058 -3.992,0 -0.535,-1.59 -1.473,-2.93 -2.793,-3.988 -1.336,-1.071 -1.734,-2.93 -1.199,-5.59 z m 1.597,83.84 c 0,1.589 -0.273,2.386 -0.797,2.386 -1.597,0.524 -2.398,0 -2.398,-1.597 0,-1.071 0.523,-2.129 1.598,-3.192 1.062,-0.527 1.597,0.262 1.597,2.403 z m -3.992,25.546 c 1.059,0 1.598,0.524 1.598,1.59 l -0.801,1.602 c -1.598,0 -2.395,-0.801 -2.395,-2.399 0,-0.531 0.528,-0.793 1.598,-0.793 z M 589.5,541.16 c 0,1.059 -0.797,1.59 -2.395,1.59 -1.07,0 -1.593,-0.531 -1.593,-1.59 0,-0.539 0.523,-1.34 1.593,-2.398 1.598,0 2.395,0.797 2.395,2.398 z m 1.598,6.379 c -2.668,4.793 -5.325,6.91 -7.985,6.391 l -1.597,-1.598 c 1.597,-3.723 4.793,-5.32 9.582,-4.793 z m -10.379,144.52 c 1.058,-1.598 1.461,-3.2 1.199,-4.789 -0.277,-1.598 0.66,-2.93 2.793,-4 1.062,-1.071 1.859,-1.59 2.394,-1.59 1.063,0 1.723,0.398 1.997,1.199 0.261,0.793 0.125,1.461 -0.399,1.992 -1.07,2.117 -1.07,3.457 0,3.988 1.059,0.532 2.121,0.801 3.195,0.801 2.657,0 3.989,1.059 3.989,3.199 0,2.118 -1.332,3.192 -3.989,3.192 -1.074,0.523 -2.273,0.66 -3.593,0.398 -1.336,-0.273 -2.532,-0.398 -3.594,-0.398 -2.668,0 -3.992,-1.336 -3.992,-3.992 z m -6.387,-88.629 c 0,-1.59 0.523,-2.668 1.598,-3.192 1.597,-1.597 2.394,-1.066 2.394,1.602 -0.535,1.058 -0.797,1.992 -0.797,2.789 0,0.801 -0.539,1.203 -1.597,1.203 -1.075,0.52 -1.598,-0.281 -1.598,-2.402 z m 4.789,-23.95 c 1.598,0 3.594,0.122 5.988,0.399 2.395,0.262 3.321,1.461 2.793,3.59 -0.535,2.66 -0.933,4.793 -1.195,6.39 -0.277,1.602 0.926,3.192 3.594,4.789 0.523,0 0.523,0.403 0,1.204 -0.539,0.796 -1.336,0.918 -2.399,0.398 -0.535,0 -0.933,-0.141 -1.195,-0.398 -0.277,-0.282 -0.934,-0.403 -1.996,-0.403 -3.195,0.52 -5.063,0.52 -5.59,0 -0.535,-0.539 -0.797,-2.398 -0.797,-5.59 0,-1.597 0.399,-3.328 1.196,-5.187 0.8,-1.871 0.664,-3.59 -0.399,-5.192 -3.73,-0.531 -5.859,-1.332 -6.387,-2.39 -0.535,-1.078 -0.535,-4.789 0,-11.18 1.063,2.649 2.52,4.91 4.391,6.781 1.859,1.86 2.523,4.118 1.996,6.789 z m 29.543,32.739 c 0,-2.668 0.399,-5.071 1.195,-7.188 0.801,-2.133 2.52,-3.73 5.192,-4.793 1.062,5.313 1.324,8.383 0.801,9.184 -0.539,0.797 -2.934,1.457 -7.188,2 -1.074,2.117 -1.473,4.109 -1.199,5.976 0.262,1.864 -0.137,3.864 -1.195,5.993 -1.598,2.129 -3.469,3.199 -5.59,3.199 -2.133,-0.539 -2.395,-2.141 -0.797,-4.789 v -2.403 c -2.672,1.602 -4.793,1.063 -6.387,-1.597 -1.598,-2.672 -3.734,-3.192 -6.391,-1.59 -1.593,1.059 -3.191,1.59 -4.789,1.59 -1.597,0 -2.929,0.269 -3.992,0.801 -3.73,0 -5.59,-0.27 -5.59,-0.801 -1.07,-3.192 -0.273,-5.321 2.395,-6.379 2.121,-1.082 4.117,-2.402 5.988,-3.992 1.86,-1.598 3.856,-2.942 5.988,-4 4.254,-3.192 6.391,-2.129 6.391,3.199 0,3.191 1.594,5.312 4.789,6.383 0.524,-2.133 1.195,-3.192 1.992,-3.192 0.801,0 1.727,0.262 2.797,0.801 1.059,0.52 1.996,1.059 2.793,1.598 0.801,0.519 1.723,0.519 2.797,0 z m -1.598,24.75 c -0.535,-0.539 -0.796,-0.938 -0.796,-1.199 0,-0.27 -0.278,-0.668 -0.801,-1.2 -0.535,-0.539 -0.797,-1.07 -0.797,-1.59 3.719,-3.742 5.851,-6.929 6.387,-9.589 0.523,-1.071 1.199,-1.469 1.996,-1.2 0.797,0.27 1.461,0.93 1.996,2 1.062,2.661 0.523,6.118 -1.598,10.379 -1.074,2.121 -2.269,2.918 -3.594,2.399 -1.336,-0.539 -2.531,-0.539 -3.589,0 -0.54,2.652 -0.938,5.051 -1.2,7.179 -0.273,2.122 0.922,3.993 3.594,5.59 2.656,2.121 3.453,3.992 2.395,5.59 -2.668,3.723 -5.864,4.793 -9.579,3.192 -2.671,-1.071 -2.933,-3.192 -0.8,-6.379 0.523,-0.539 0.8,-1.34 0.8,-2.403 1.594,-4.789 0.797,-8.258 -2.398,-10.379 -1.598,-1.07 -3.332,-1.988 -5.191,-2.789 -1.868,-0.8 -3.868,0.121 -5.989,2.789 -1.07,1.602 -3.464,2.922 -7.183,3.993 -6.922,2.117 -10.117,-0.532 -9.578,-7.981 0,-1.07 0.121,-1.871 0.394,-2.391 0.262,-0.539 0.403,-1.339 0.403,-2.402 0,-1.066 0,-2.129 0,-3.187 0,-1.082 0.796,-1.871 2.394,-2.403 1.598,-0.539 2.395,-0.136 2.395,1.203 0,1.321 0.261,2.52 0.8,3.59 1.059,3.199 3.192,3.989 6.387,2.399 1.059,-1.078 1.719,-2.27 1.992,-3.598 0.262,-1.332 1.727,-1.473 4.395,-0.391 1.058,0.52 2.519,1.188 4.39,1.989 1.86,0.8 3.055,2 3.594,3.59 1.059,2.66 2.395,3.718 3.992,3.199 1.594,-0.539 3.192,-0.539 4.789,0 z M 578.324,553.93 c -1.074,2.66 -2.394,3.461 -3.992,2.402 -1.07,0 -2.133,-0.141 -3.191,-0.402 -1.075,-0.282 -1.075,-1.2 0,-2.801 0,-1.07 1.593,-1.59 4.789,-1.59 2.121,0 2.918,0.793 2.394,2.391 z m -7.183,108.59 c -0.539,-0.54 -1.075,-0.801 -1.598,-0.801 -0.539,0 -1.074,-0.278 -1.598,-0.797 -1.597,-3.203 -0.8,-6.391 2.395,-9.582 2.121,-3.199 4.515,-3.469 7.187,-0.801 1.059,1.063 2.395,2.121 3.989,3.191 1.597,1.059 2.66,2.918 3.195,5.59 v 3.2 c -1.598,1.589 -2.934,1.32 -3.992,-0.801 -1.598,-4.27 -3.731,-4.27 -6.387,0 -0.535,0.519 -1.598,0.801 -3.191,0.801 z m -1.598,93.41 c -0.539,0 -0.801,0.125 -0.801,0.402 0,0.262 -0.273,0.395 -0.797,0.395 l -1.597,-0.797 c 0,-0.535 0.523,-0.797 1.597,-0.797 0.524,0 1.059,0.262 1.598,0.797 z m 0,-16.766 c -1.598,0 -2.934,-1.598 -3.992,-4.789 0,-0.535 0.262,-1.074 0.797,-1.598 0.523,-0.535 1.058,-0.535 1.597,0 3.196,0 4.789,1.321 4.789,3.993 0,1.597 -1.07,2.394 -3.191,2.394 z m 7.184,-59.082 c 0.523,1.059 0.261,2.258 -0.797,3.59 -1.075,1.328 -2.133,2.258 -3.196,2.797 -1.07,0 -2.929,-1.34 -5.589,-3.989 -2.668,-2.671 -3.989,-4.531 -3.989,-5.589 0,-1.082 0.395,-2.141 1.196,-3.2 0.796,-1.07 1.461,-1.332 1.996,-0.793 2.121,1.063 3.992,2.25 5.59,3.59 1.593,1.321 3.191,2.524 4.789,3.594 z m -15.168,15.969 c -2.137,0 -2.672,-0.797 -1.598,-2.395 0.523,-1.597 1.32,-1.875 2.394,-0.797 1.063,0 1.598,0.797 1.598,2.395 0,1.059 -0.797,1.32 -2.394,0.797 z m -0.801,7.183 c 0,1.598 -0.797,2.395 -2.395,2.395 -1.597,0 -1.871,-0.797 -0.8,-2.395 l 1.597,-1.593 c 0.524,0 0.801,0.261 0.801,0.797 0,0.523 0.262,0.796 0.797,0.796 z m -11.18,-262.675 c -0.531,0.531 -0.797,1.07 -0.797,1.589 -1.593,0 -2.394,-0.519 -2.394,-1.589 0,-2.118 0.801,-2.661 2.394,-1.598 0.528,0.527 0.797,1.07 0.797,1.598 z m 20.762,47.902 v -0.801 c 0.523,-1.058 0.801,-1.988 0.801,-2.789 0,-0.801 0.261,-1.723 0.797,-2.801 3.714,-4.25 2.656,-7.711 -3.196,-10.379 l -2.394,-2.39 c -1.594,-1.063 -3.469,-2.262 -5.59,-3.59 -2.133,-1.332 -2.934,-3.32 -2.395,-5.992 0,-3.199 1.321,-4.649 3.992,-4.391 2.661,0.274 5.051,-0.129 7.188,-1.199 1.059,-1.059 2.395,-1.059 3.988,0 1.063,1.07 1.063,2.93 0,5.59 -2.668,5.859 -1.07,9.062 4.793,9.582 3.719,0 5.852,1.328 6.387,3.988 0,3.731 -1.598,6.133 -4.789,7.191 -4.793,1.071 -6.66,3.461 -5.59,7.18 1.059,0 1.859,-0.262 2.395,-0.801 0.523,-0.519 1.062,-0.257 1.597,0.801 2.121,3.731 3.453,7.461 3.992,11.18 1.598,4.269 -0.273,6.39 -5.589,6.39 -1.598,0 -3.196,-0.398 -4.789,-1.199 -1.598,-0.801 -3.469,-0.402 -5.59,1.199 1.058,2.129 2.257,3.989 3.59,5.59 1.324,1.59 3.058,2.129 5.191,1.59 4.258,0 8.508,0.281 12.773,0.801 4.258,0.539 7.711,-1.32 10.383,-5.59 2.656,2.668 3.992,5.867 3.992,9.578 2.657,2.672 3.715,5.473 3.192,8.391 -0.535,2.922 -0.274,5.711 0.801,8.379 0.523,2.121 -0.278,3.722 -2.399,4.793 -1.594,1.597 -2.93,2.117 -3.988,1.597 -1.598,-1.07 -2.137,-2.398 -1.598,-3.988 0.524,-2.672 0.399,-5.191 -0.398,-7.59 -0.801,-2.39 -2.535,-4.121 -5.192,-5.191 -2.672,1.07 -5.062,1.34 -7.183,0.801 -2.137,-0.532 -4.532,-0.532 -7.188,0 -3.195,0 -5.59,0.8 -7.183,2.398 -5.328,5.313 -8.786,4.25 -10.383,-3.199 -1.074,-2.66 -0.934,-5.309 0.398,-7.981 1.324,-2.66 2.262,-5.32 2.797,-7.988 -2.133,-1.062 -4.129,-1.191 -5.988,-0.402 -1.871,0.801 -3.332,0.402 -4.391,-1.188 -1.597,-2.66 -3.07,-5.461 -4.394,-8.39 -1.336,-2.922 -2.27,-5.993 -2.793,-9.18 -1.074,-3.723 0,-5.051 3.191,-3.992 1.598,0 3.32,0.801 5.192,2.39 1.859,1.602 3.32,0.539 4.39,-3.187 2.66,2.668 4.52,3.988 5.594,3.988 1.059,0 1.992,0.141 2.793,0.399 0.797,0.281 1.719,0.402 2.793,0.402 z m -32.735,-21.563 c 1.598,0 2.395,0.801 2.395,2.403 0,1.597 -1.074,2.39 -3.195,2.39 -2.129,0 -3.192,-1.062 -3.192,-3.191 1.063,-2.121 2.395,-2.66 3.992,-1.602 z m 18.364,-19.16 c -1.598,2.141 -2.793,4.672 -3.594,7.59 -0.797,2.934 -3.328,2.274 -7.586,-1.996 -0.535,0 -1.867,0.539 -3.988,1.598 -2.137,2.129 -4.793,3.191 -7.985,3.191 v -7.98 c 0,-4.789 2.122,-6.391 6.387,-4.789 2.656,1.07 5.313,1.988 7.985,2.789 2.656,0.8 5.585,0.668 8.781,-0.403 z m -23.153,291.426 c 1.059,1.063 0.797,1.598 -0.8,1.598 l -1.598,-0.797 0.801,-1.598 c 1.058,0 1.597,0.262 1.597,0.797 z m 20.758,24.75 c -3.195,4.258 -6.386,5.594 -9.582,3.992 -3.191,-1.593 -6.387,-2.394 -9.582,-2.394 -2.668,0 -3.992,-1.074 -3.992,-3.192 0,-2.132 1.062,-3.195 3.195,-3.195 6.91,-1.598 13.575,0 19.961,4.789 z m -8.785,-340.926 c 0,2.672 -1.07,3.473 -3.191,2.403 -3.196,-0.532 -5.328,-2.661 -6.387,-6.391 -0.535,-1.602 -2.133,-2.918 -4.793,-3.988 -2.668,-1.063 -2.668,-2.66 0,-4.793 1.598,-1.598 2.922,-1.457 3.992,0.402 1.063,1.867 2.656,3.328 4.793,4.391 1.059,1.07 2.254,2.129 3.59,3.187 1.324,1.071 1.996,2.672 1.996,4.789 z M 520.836,755.93 c 0.523,0.523 1.324,0.797 2.398,0.797 1.059,0 1.598,0.8 1.598,2.398 -0.539,1.598 -2.137,2.395 -4.793,2.395 -2.668,0 -3.992,-1.071 -3.992,-3.196 0,-2.668 1.598,-3.465 4.789,-2.394 z M 506.465,424.59 c 2.66,0 3.719,1.07 3.195,3.191 0,2.129 -1.336,3.731 -3.992,4.789 -2.668,0 -3.992,-1.058 -3.992,-3.191 -0.539,-3.199 1.062,-4.789 4.789,-4.789 z m -30.34,-29.539 c -1.07,-1.063 -1.598,-2.129 -1.598,-3.199 1.063,-3.192 2.657,-4.512 4.793,-3.993 1.059,0 1.598,0.801 1.598,2.391 -1.074,3.199 -2.672,4.801 -4.793,4.801 z m 10.379,410.383 c 1.598,0.523 3.457,0 5.59,-1.598 2.121,-1.598 3.457,0 3.992,4.793 2.656,-1.074 3.594,-2.672 2.797,-4.793 -0.801,-2.133 -0.938,-3.992 -0.403,-5.586 -0.535,-1.074 -1.593,-1.473 -3.191,-1.199 -1.598,0.262 -2.137,-0.676 -1.598,-2.797 0,-1.07 0.524,-1.598 1.598,-1.598 1.598,0 2.258,0.664 1.996,2 -0.277,1.321 0.125,2.52 1.195,3.594 2.122,1.059 3.458,2.793 3.993,5.188 0.527,2.394 2.66,2.257 6.386,-0.399 1.063,-0.539 1.864,-0.277 2.399,0.797 0.523,1.062 0.523,2.121 0,3.195 -1.074,1.063 -1.871,2.117 -2.399,3.192 -0.535,1.062 -0.535,2.398 0,3.996 0,6.386 -3.191,8.777 -9.582,7.183 -3.191,-0.535 -5.187,-0.273 -5.984,0.797 -0.801,1.063 -1.473,2.918 -1.996,5.59 1.594,1.598 1.32,2.922 -0.801,3.992 h -0.797 c -0.535,-1.07 0,-2.394 1.598,-3.992 -0.535,-1.074 -1.199,-2.269 -1.996,-3.594 -0.801,-1.336 -0.672,-2.793 0.398,-4.39 2.121,-2.668 1.324,-4.528 -2.394,-5.586 -1.075,0 -2.27,-0.403 -3.594,-1.203 -1.336,-0.797 -2.531,-0.395 -3.594,1.203 -1.597,2.656 -3.469,3.988 -5.59,3.988 -2.132,0 -4.527,0 -7.183,0 -1.074,0 -1.996,0 -2.793,0 -0.797,0 -1.738,-0.535 -2.797,-1.598 -1.07,-3.191 -0.801,-5.863 0.797,-7.98 1.597,-2.672 4.793,-4.793 9.582,-6.391 1.062,-0.535 2.519,-1.472 4.394,-2.793 1.86,-1.336 2.254,0.399 1.196,5.192 0,1.058 0.261,1.457 0.797,1.195 0.523,-0.273 1.324,-0.398 2.398,-0.398 2.656,-1.598 4.512,-1.598 5.586,0 z m -30.34,190.023 c 0.524,1.594 0,2.395 -1.598,2.395 -1.593,1.597 -2.39,1.062 -2.39,-1.598 0,-1.598 0.797,-2.395 2.39,-2.395 1.063,0 1.598,0.528 1.598,1.598 z m 0,-51.898 c -2.133,-1.071 -4.129,-1.871 -5.988,-2.395 -1.867,-0.535 -3.59,-1.336 -5.188,-2.394 -1.597,-0.54 -2.672,-2.27 -3.195,-5.192 -0.535,-2.93 -0.273,-4.926 0.801,-5.984 2.121,-2.137 3.594,-2.399 4.39,-0.801 0.797,1.598 1.719,2.656 2.793,3.191 1.063,1.063 2.121,1.598 3.196,1.598 3.715,-0.535 5.59,0.262 5.59,2.398 0,2.122 0.261,4.25 0.796,6.387 1.063,2.121 0,3.192 -3.195,3.192 z m -11.176,96.611 c -2.672,-1.07 -3.992,-2.67 -3.992,-4.79 1.059,-2.67 2.395,-4.27 3.992,-4.79 2.657,0 3.715,1.06 3.192,3.19 -0.535,1.06 -0.672,2.26 -0.399,3.6 0.266,1.32 -0.676,2.25 -2.793,2.79 z m -4.793,35.93 c -1.074,0.52 -1.597,0 -1.597,-1.6 0,-2.67 0.523,-3.99 1.597,-3.99 1.598,-1.07 2.399,-0.54 2.399,1.6 0.523,1.59 -0.278,2.91 -2.399,3.99 z m -3.191,-229.151 c 2.656,0.524 5.051,0.262 7.187,-0.797 2.118,-1.07 4.512,-1.07 7.184,0 -2.672,4.254 -4.664,6.512 -5.988,6.786 -1.336,0.261 -4.129,-1.731 -8.383,-5.989 z m 0,37.528 c 3.715,2.121 5.312,4.515 4.789,7.183 0,1.063 -0.535,1.598 -1.598,1.598 -3.191,-1.598 -4.265,-4.528 -3.191,-8.781 z m 0,-491.829 c -1.598,-4.25 -0.535,-7.187 3.191,-8.777 h 1.598 c 0.523,0 0.801,0.27 0.801,0.801 1.058,2.129 1.058,3.726 0,4.789 -1.074,1.07 -2.137,2.129 -3.196,3.187 z m -3.992,482.247 c -0.539,0.527 -1.074,0.796 -1.598,0.796 -1.07,0 -1.07,-0.535 0,-1.593 0.524,-0.535 0.797,-0.535 0.797,0 z m -0.801,188.425 c -1.598,-1.59 -2.395,-3.73 -2.395,-6.39 -0.535,-1.07 -0.933,-2.13 -1.195,-3.19 -0.277,-1.07 0.399,-1.87 1.992,-2.39 1.063,-0.54 2.262,-0.94 3.598,-1.2 1.32,-0.27 2.519,0.12 3.59,1.2 1.597,1.6 1.32,3.72 -0.797,6.38 -2.133,2.13 -3.731,4 -4.793,5.59 z m -0.797,-202 c -1.07,1.063 -2.133,1.598 -3.191,1.598 -1.598,0 -2.399,-0.797 -2.399,-2.395 0,-2.132 0.801,-2.668 2.399,-1.593 1.058,0 2.121,0.797 3.191,2.39 z M 429.02,368.699 c 0,1.071 -0.797,1.602 -2.395,1.602 -1.074,0 -1.598,-0.531 -1.598,-1.602 0,-2.66 0.797,-3.461 2.395,-2.398 1.062,0 1.598,0.801 1.598,2.398 z m -8.782,685.841 c 3.192,1.06 4.516,2.66 3.989,4.79 0,3.72 -1.594,5.59 -4.789,5.59 -2.668,0 -3.993,-2.13 -3.993,-6.39 0,-2.67 1.598,-3.99 4.793,-3.99 z m -11.976,42.32 c -4.793,-1.08 -7.188,-3.2 -7.188,-6.39 0,-3.2 1.059,-4.79 3.196,-4.79 1.058,-0.54 1.996,-0.54 2.793,0 0.8,0.52 1.199,1.32 1.199,2.39 0,1.6 0.261,3.06 0.797,4.39 0.523,1.33 0.261,2.8 -0.797,4.4 z M 389.898,878.887 c -1.074,-0.535 -1.597,-1.336 -1.597,-2.395 0.523,0 0.922,-0.137 1.195,-0.398 0.266,-0.274 0.664,-0.403 1.199,-0.403 0.524,0.528 0.797,1.063 0.797,1.598 0,1.063 -0.535,1.598 -1.594,1.598 z M 387.5,1110.43 c -1.07,1.06 -2.395,1.32 -3.988,0.8 -1.598,0 -2.137,-0.54 -1.598,-1.6 1.059,-2.67 2.395,-3.47 3.988,-2.4 1.598,0 2.121,1.07 1.598,3.2 z m -6.387,-32.74 c 0.524,0 1.325,0.53 2.399,1.6 0,1.06 -0.539,1.6 -1.598,1.6 -1.074,0 -1.598,-0.8 -1.598,-2.4 -0.539,0 -0.671,-0.13 -0.398,-0.4 0.262,-0.27 0.66,-0.4 1.195,-0.4 z m 3.196,12.78 c 0,0.52 -0.797,1.32 -2.395,2.39 -2.137,0 -3.195,-1.07 -3.195,-3.19 0,-2.13 0.797,-3.19 2.394,-3.19 1.063,0 2.121,1.32 3.196,3.99 z m -14.371,16.76 c 2.656,0 3.992,1.07 3.992,3.2 0,2.66 -1.336,3.46 -3.992,2.39 -3.196,0 -4.532,-1.33 -3.993,-3.99 0.524,-1.07 1.86,-1.6 3.993,-1.6 z m -3.196,-244.312 c -2.672,-1.07 -3.992,-1.867 -3.992,-2.395 -0.535,-1.593 -0.273,-2.668 0.801,-3.191 1.058,-0.539 2.117,-0.801 3.191,-0.801 1.063,-0.535 2.121,0.262 3.196,2.399 0,1.593 -1.075,2.918 -3.196,3.988 z m -11.976,-12.773 1.597,0.8 c 1.059,1.059 0.797,1.598 -0.8,1.598 h -1.594 c 0,-0.539 0.121,-0.941 0.398,-1.203 0.262,-0.274 0.399,-0.672 0.399,-1.195 z m -4.789,257.085 c -1.075,2.66 -2.399,3.46 -3.993,2.4 -1.074,0 -1.734,-0.27 -1.996,-0.8 -0.273,-0.53 0.125,-1.07 1.2,-1.6 1.058,-1.07 2.121,-1.59 3.191,-1.59 1.059,-0.54 1.723,-0.54 1.996,0 0.262,0.52 0.125,1.06 -0.398,1.59 z m -2.399,-251.496 c 0,1.059 -0.531,1.598 -1.594,1.598 -1.074,0 -1.597,-0.539 -1.597,-1.598 -1.074,-1.597 -0.535,-2.394 1.597,-2.394 1.063,0 1.594,0.797 1.594,2.394 z m -26.344,-51.097 c 0,2.121 -1.074,3.191 -3.195,3.191 -2.133,0 -3.191,-0.797 -3.191,-2.394 0,-2.133 1.058,-3.196 3.191,-3.196 1.059,-0.535 2.121,0.262 3.195,2.399 z m -6.386,-11.18 c 0,-0.535 -0.403,-1.07 -1.2,-1.598 -0.796,-0.535 -0.675,-1.593 0.399,-3.191 0,-1.074 0.801,-1.598 2.394,-1.598 2.657,0.524 3.457,2.395 2.395,5.586 0,1.598 -1.332,1.86 -3.988,0.801 z m -3.996,-112.578 c -1.071,0.519 -1.473,1.461 -1.196,2.793 0.262,1.328 -0.398,2 -1.996,2 -1.074,-0.543 -1.597,-1.602 -1.597,-3.192 0,-1.601 1.324,-2.398 3.992,-2.398 h 0.797 z m -0.797,-60.68 c 1.058,1.602 2.121,3.063 3.195,4.391 1.059,1.332 1.32,3.058 0.797,5.191 -1.598,0.528 -3.07,0.93 -4.391,1.199 -1.336,0.258 -2.793,0.399 -4.39,0.399 3.195,-2.668 4.789,-6.391 4.789,-11.18 z m -4.789,225.953 c 1.058,-1.593 1.461,-3.191 1.199,-4.789 -0.277,-1.597 0.66,-2.672 2.793,-3.195 2.121,-1.07 3.191,-0.273 3.191,2.395 0.524,2.66 0,4.117 -1.597,4.39 -1.594,0.262 -3.465,0.664 -5.586,1.199 z m 8.781,-239.523 c -1.598,0.519 -3.469,0.262 -5.586,-0.797 -2.672,-1.07 -3.734,-2.672 -3.195,-4.793 1.058,-1.598 1.996,-2.141 2.793,-1.598 0.796,0.528 1.722,1.321 2.793,2.399 0.527,0.519 1.199,0.922 2,1.191 0.796,0.258 1.195,1.457 1.195,3.598 z m -9.582,-29.539 c 0,-1.602 0.801,-2.399 2.398,-2.399 0,0.52 0.121,0.918 0.399,1.2 0.261,0.257 0.398,0.66 0.398,1.199 -1.074,1.058 -1.871,1.59 -2.394,1.59 l -0.801,-0.801 z m 3.195,92.609 c 0,2.121 -0.797,3.199 -2.394,3.199 -1.598,0 -2.399,-1.078 -2.399,-3.199 0,-2.668 0.801,-3.469 2.399,-2.39 1.597,0 2.394,0.8 2.394,2.39 z m -3.195,-304.187 c -2.129,-1.071 -3.192,-1.864 -3.192,-2.403 0,-1.058 1.063,-2.121 3.192,-3.187 2.121,0 3.195,0.797 3.195,2.387 -0.535,1.601 -1.597,2.671 -3.195,3.203 z m -3.192,4.789 c 1.594,0.531 2.395,1.59 2.395,3.187 0,2.133 -0.801,3.192 -2.395,3.192 -1.597,0 -2.394,-1.059 -2.394,-3.192 0,-2.117 0.797,-3.187 2.394,-3.187 z m -3.992,376.051 c 1.059,-0.539 2.121,-1.336 3.196,-2.399 1.058,-1.07 2.39,-1.07 3.988,0 v 0.801 c -1.07,2.121 -2.27,2.793 -3.594,1.996 -1.336,-0.801 -2.531,-0.937 -3.59,-0.398 z m 14.371,-185.231 c -2.668,0.52 -4.925,0.918 -6.785,1.199 -1.875,0.262 -3.867,0.66 -5.988,1.192 -1.598,0.527 -3.992,0.258 -7.188,-0.793 -1.597,-1.078 -2.269,-2.141 -1.996,-3.199 0.262,-1.071 0.66,-2.129 1.2,-3.188 0.523,-2.141 1.597,-2.402 3.195,-0.801 1.594,1.59 3.453,1.059 5.586,-1.601 0.523,-1.071 1.062,-2.27 1.597,-3.59 0.524,-1.34 1.063,-2.531 1.594,-3.59 1.063,-1.078 2.121,-1.602 3.196,-1.602 1.597,0 2.398,1.063 2.398,3.192 0,2.121 -0.141,4.262 -0.402,6.39 -0.278,2.122 0.925,4.25 3.593,6.391 z M 288.496,662.52 c 0,0.519 -0.797,1.589 -2.391,3.191 -1.074,1.059 -1.597,0.801 -1.597,-0.801 0,-1.59 0.797,-2.672 2.394,-3.191 0.524,-0.539 1.059,-0.278 1.594,0.801 z m -4.789,-47.911 c 2.66,-0.531 4.914,-0.929 6.785,-1.199 1.86,-0.269 3.86,-0.398 5.988,-0.398 -0.535,2.117 -0.535,4.117 0,5.988 0.528,1.859 -0.535,3.32 -3.191,4.391 -3.195,0.531 -5.066,-0.403 -5.59,-2.789 -0.535,-2.403 -1.871,-4.391 -3.992,-5.993 z m -0.797,490.231 c 1.598,-0.54 3.317,-0.93 5.188,-1.2 1.859,-0.27 3.32,0.66 4.394,2.8 l -0.801,0.79 c -2.132,1.6 -3.867,1.86 -5.191,0.8 -1.336,-1.07 -2.531,-2.13 -3.59,-3.19 z m 10.379,-750.512 c 0.524,-1.058 0.66,-1.996 0.399,-2.797 -0.278,-0.801 0.125,-1.461 1.199,-1.992 1.593,0 2.394,0.531 2.394,1.59 0,1.601 -0.398,2.402 -1.199,2.402 -0.797,0 -1.73,0 -2.793,0 -1.074,2.129 -1.199,4.129 -0.402,5.989 0.801,1.871 0.402,4.128 -1.196,6.781 -2.132,-1.063 -4.527,-1.719 -7.183,-1.992 -2.672,-0.27 -3.735,-2 -3.195,-5.188 0.523,-2.66 1.859,-4.262 3.992,-4.793 2.121,-0.527 4.515,-0.527 7.187,0 z M 280.512,847.75 c 0,-2.133 1.199,-3.07 3.593,-2.797 2.395,0.262 3.059,-0.933 2,-3.59 -1.074,-2.672 0.262,-3.996 3.989,-3.996 1.597,0 2.258,0.664 1.996,2 -0.274,1.321 -0.137,2.52 0.402,3.594 0,2.121 -0.277,3.191 -0.801,3.191 -2.671,-0.535 -4.265,0.262 -4.789,2.395 -0.535,2.121 -1.597,2.922 -3.195,2.398 -1.074,0 -2.133,-1.074 -3.195,-3.195 z m 0,-120.562 c 2.66,-1.075 4.918,-0.797 6.789,0.796 1.859,1.598 4.117,2.121 6.789,1.598 3.715,0 4.789,1.324 3.191,3.992 -0.539,1.598 -1.336,3.059 -2.394,4.391 -1.074,1.324 -2.133,1.461 -3.196,0.402 -2.671,-1.074 -5.324,-2.137 -7.984,-3.195 -2.672,-1.074 -3.73,-3.731 -3.195,-7.984 z m 4.793,-131.739 c 2.656,-0.539 4.789,-0.14 6.386,1.199 1.598,1.321 3.719,1.723 6.387,1.204 1.598,0 2.399,0.519 2.399,1.589 0,1.598 -0.801,2.918 -2.399,3.989 -1.598,1.058 -3.465,1.058 -5.586,0 -2.137,-1.071 -3.734,0.261 -4.793,4 0,1.59 -0.797,1.59 -2.394,0 -1.075,-1.078 -1.871,-2.141 -2.395,-3.2 -0.539,-1.07 -1.336,-2.128 -2.398,-3.191 -1.071,-1.598 -1.071,-3.07 0,-4.391 1.062,-1.339 2.66,-1.738 4.793,-1.199 z m -3.992,334.535 c 1.058,2.661 1.597,5.317 1.597,7.985 0,2.66 -1.074,5.316 -3.195,7.984 -1.07,-3.191 -1.735,-5.988 -1.996,-8.379 -0.274,-2.398 0.926,-4.929 3.594,-7.59 z m 3.195,-352.894 c 0,-5.328 1.597,-9.578 4.789,-12.781 1.598,1.601 3.055,3.062 4.391,4.39 1.32,1.321 3.054,2.801 5.191,4.391 -4.789,2.66 -9.582,4 -14.371,4 1.058,1.59 2.394,3.191 3.988,4.789 1.598,1.59 2.399,3.992 2.399,7.18 -2.672,-1.598 -5.192,-2.668 -7.586,-3.188 -2.395,-0.543 -4.926,-1.34 -7.586,-2.402 -0.535,-1.071 -0.274,-2.93 0.8,-5.59 0.524,-1.07 0.524,-1.867 0,-2.391 -0.539,-0.539 -0.277,-1.34 0.797,-2.398 1.598,0 2.918,0.531 3.993,1.601 1.058,1.059 2.121,1.86 3.195,2.399 z m 11.176,-31.141 c -2.668,-0.539 -5.067,0.801 -7.188,3.992 -0.535,1.059 -0.797,2.391 -0.797,3.989 0,1.601 -0.535,2.922 -1.594,3.992 -1.074,3.199 -4.269,4.258 -9.582,3.199 -2.136,0 -3.195,-1.34 -3.195,-4 0.524,-1.59 1.059,-3.191 1.598,-4.789 0.523,-1.594 2.121,-2.391 4.789,-2.391 2.656,0 5.316,-0.8 7.984,-2.402 2.656,-1.59 5.317,-2.129 7.985,-1.59 z m -15.969,233.934 c -1.07,1.597 -2.133,2.398 -3.192,2.398 -3.195,-1.074 -4.793,-2.933 -4.793,-5.59 1.063,-2.132 1.86,-3.195 2.395,-3.195 2.66,0 4.52,2.121 5.59,6.387 z m 8.781,-83.035 c -0.535,2.121 -1.594,3.457 -3.191,3.992 -1.598,0.523 -2.672,1.598 -3.196,3.191 0,1.063 -0.398,1.727 -1.195,2 -0.801,0.262 -1.473,0.121 -1.996,-0.402 -1.074,-1.598 -2.27,-3.328 -3.594,-5.188 -1.336,-1.871 -2.531,-3.867 -3.594,-5.988 -0.535,-1.074 0,-1.992 1.598,-2.793 1.598,-0.801 3.195,-0.672 4.793,0.399 1.594,1.058 3.192,2.121 4.789,3.195 1.598,1.059 3.457,1.594 5.586,1.594 z m -15.969,88.625 1.598,0.797 c 0.523,1.597 0,2.398 -1.598,2.398 -1.07,0 -1.593,-0.277 -1.593,-0.801 0,-1.597 0.523,-2.394 1.593,-2.394 z m -17.562,313.777 c -1.074,0 -1.598,0.27 -1.598,0.8 l -0.801,-0.8 0.801,-1.59 z M 240.594,375.09 c 0,1.59 -0.539,2.39 -1.598,2.39 -1.598,0 -2.398,-0.519 -2.398,-1.601 0,-2.117 0.8,-3.188 2.398,-3.188 1.059,1.071 1.598,1.868 1.598,2.399 z m -41.52,10.371 c 2.121,1.078 3.457,2.141 3.992,3.199 0,1.59 -0.796,2.391 -2.394,2.391 -2.137,0 -3.469,-1.063 -3.992,-3.192 0,-1.597 0.797,-2.398 2.394,-2.398 z m -15.969,38.328 c -1.07,0 -1.593,-0.801 -1.593,-2.398 0,-1.063 0.797,-1.59 2.39,-1.59 1.063,0 1.598,0.789 1.598,2.39 0,1.071 -0.797,1.598 -2.395,1.598 z m -6.386,-7.187 c -1.071,2.668 -2.668,3.726 -4.789,3.199 -3.196,0 -4.789,-1.332 -4.789,-4 0.519,-1.59 2.117,-2.391 4.789,-2.391 2.121,-0.519 3.718,0.539 4.789,3.192 z m -14.371,12.777 c -1.598,2.133 -2.395,5.59 -2.395,10.383 0,1.59 -1.336,2.386 -3.992,2.386 -2.137,-1.058 -2.672,-2.386 -1.598,-3.988 2.121,-4.25 2.918,-7.711 2.395,-10.379 0,-1.601 1.062,-2.39 3.195,-2.39 1.594,0 2.395,1.328 2.395,3.988 z m -19.16,-3.199 c 1.058,-1.059 1.457,-2.52 1.195,-4.391 -0.274,-1.848 0.926,-3.32 3.594,-4.391 0.523,0 1.597,1.204 3.195,3.59 1.594,2.403 2.117,3.871 1.594,4.403 -0.536,2.66 -2.668,4.519 -6.387,5.589 -2.133,0 -3.191,-1.601 -3.191,-4.8 z m -5.59,45.511 c 3.715,-1.589 6.648,-1.32 8.781,0.797 l -0.801,2.403 c -3.726,2.129 -6.387,1.07 -7.98,-3.2 z m -3.196,-31.132 c -1.074,-1.071 -2.531,-1.719 -4.39,-2 -1.871,-0.258 -3.332,-1.457 -4.391,-3.59 6.387,-2.66 9.305,-0.797 8.781,5.59 z m -13.57,293.816 h 1.594 c 2.656,1.059 3.992,2.918 3.992,5.59 -0.535,0.523 -1.074,0.797 -1.598,0.797 -1.597,0 -2.929,-1.598 -3.988,-4.793 z M 116.836,480.48 c 1.598,-0.531 2.922,-0.261 3.996,0.79 1.059,1.082 2.391,1.339 3.988,0.8 1.598,-0.519 2.399,0.282 2.399,2.399 -1.074,3.73 -3.473,5.332 -7.188,4.793 -1.074,-0.532 -1.871,-0.403 -2.394,0.398 -0.539,0.801 -1.336,0.668 -2.399,-0.398 -0.535,-2.121 -0.269,-3.203 0.801,-3.203 1.059,0 2.121,-0.258 3.195,-0.789 1.059,-1.598 0.661,-2.399 -1.199,-2.399 -1.871,0 -2.269,-0.801 -1.199,-2.391 z m 15.172,28.739 c -2.668,2.133 -3.867,4.531 -3.594,7.179 0.262,2.672 -0.934,4.532 -3.594,5.59 -1.597,-1.058 -2.929,-2.25 -3.988,-3.59 -1.074,-1.316 -2.672,-2.519 -4.793,-3.589 -3.73,-1.059 -4.789,-3.2 -3.191,-6.387 1.593,-2.66 3.715,-2.66 6.386,0 1.598,1.598 3.317,2.129 5.188,1.598 1.859,-0.532 4.394,-0.801 7.586,-0.801 z m -5.59,-48.699 c -0.535,1.07 -0.934,2.269 -1.195,3.589 -0.278,1.332 -1.2,2.532 -2.797,3.59 -5.328,2.133 -9.317,3.473 -11.977,3.992 -2.668,0 -3.988,-1.32 -3.988,-3.992 0.523,-2.121 1.855,-2.66 3.988,-1.59 6.387,2.129 11.703,0.27 15.969,-5.589 z m -20.758,78.242 c 2.656,1.058 3.992,2.519 3.992,4.386 0,1.864 0.524,3.864 1.598,5.993 -4.266,-1.071 -6.125,-2.672 -5.59,-4.789 0.524,-2.133 0.524,-3.993 0,-5.59 z m 6.387,22.359 c -4.789,-1.07 -7.184,-2.93 -7.184,-5.59 l 1.598,-0.801 c 2.652,0 4.512,2.122 5.586,6.391 z M 98.4766,680.879 c 3.7144,1.601 7.0434,1.461 9.9764,-0.399 2.922,-1.871 6.25,-2.531 9.981,-2 -4.266,4.79 -7.184,7.309 -8.782,7.59 -1.597,0.262 -5.328,-1.468 -11.1754,-5.191 z m 0.7968,23.152 c 3.7146,3.196 6.2466,5.055 7.5816,5.594 1.325,0.523 4.918,1.059 10.782,1.594 3.195,0 4.254,1.324 3.195,3.992 -0.539,2.656 -2.137,4.918 -4.793,6.789 -2.668,1.855 -3.73,4.391 -3.191,7.582 0,0.523 -0.801,0.926 -2.399,1.199 -1.597,0.262 -2.929,0.399 -3.988,0.399 -1.074,0 -2.934,-2.27 -5.594,-6.785 -2.6678,-4.528 -3.4647,-7.325 -2.3904,-8.383 1.5934,-2.137 1.9924,-4.129 1.1953,-5.989 -0.8008,-1.875 -0.9336,-3.871 -0.3985,-5.992 z m 1.5936,-72.652 -3.1912,-1.598 c -2.6719,-3.191 -2.6719,-6.39 0,-9.582 1.0625,-1.07 2.3942,-1.07 3.9922,0 2.121,1.063 3.055,2.391 2.793,3.992 -0.273,1.598 -0.934,3.2 -1.996,4.789 0,0.532 -0.535,1.329 -1.598,2.399 z m 3.196,-146.91 c 1.062,2.672 2.66,4.66 4.789,5.992 2.121,1.328 3.718,3.328 4.793,5.988 -1.075,0.531 -1.997,1.332 -2.793,2.391 -0.801,1.07 -1.739,1.332 -2.797,0.801 -2.133,-1.059 -4.266,-1.059 -6.387,0 -2.1328,1.07 -3.9922,0.269 -5.5899,-2.403 -2.1328,-2.648 -1.8711,-4.386 0.8008,-5.187 2.6563,-0.801 3.9881,-2.52 3.9881,-5.192 0,-0.519 0.266,-0.8 0.801,-0.8 0.523,-0.52 1.32,-1.047 2.395,-1.59 z m -8.7817,98.203 c 0,1.598 -0.8008,2.398 -2.3946,2.398 -2.1328,0 -2.6719,-1.07 -1.5976,-3.191 1.0625,-1.078 1.8593,-1.34 2.3945,-0.797 1.0586,0 1.5977,0.52 1.5977,1.59 z m 1.5976,-39.121 c 0,2.66 -1.875,4.519 -5.5898,5.59 -1.0743,0 -2.1328,-0.27 -3.1953,-0.801 -1.0743,-0.531 -1.336,-1.07 -0.7969,-1.59 1.0586,-3.199 3.1953,-5.328 6.3867,-6.391 1.0586,-0.539 2.1211,0.52 3.1953,3.192 z m -9.582,-19.16 c 2.1211,0 3.1953,0.539 3.1953,1.597 0,1.594 -0.8008,2.391 -2.3984,2.391 -2.668,0 -3.4649,-1.07 -2.3946,-3.188 z m 5.5898,162.078 c -4.2695,0.519 -6.9258,0 -7.9844,-1.598 -1.0742,-1.601 -1.871,-5.32 -2.3945,-11.18 3.1914,1.059 5.1875,2.918 5.9883,5.59 0.7969,2.66 2.2578,5.059 4.3906,7.188 z m 3.1914,-114.168 c -3.7265,1.058 -6.7851,1.187 -9.1797,0.39 -2.3984,-0.793 -5.1914,-1.73 -8.3867,-2.793 3.7188,-1.597 6.9141,-2.386 9.5821,-2.386 2.6601,0 5.3164,1.59 7.9843,4.789 z M 444.988,872.5 c 3.715,-2.668 7.188,-5.191 10.379,-7.586 3.196,-2.394 6.91,-4.391 11.18,-5.984 13.832,-5.328 26.344,-12.117 37.523,-20.364 11.176,-8.257 22.082,-17.437 32.735,-27.543 l 3.996,-3.992 c 20.758,-17.043 37.383,-36.605 49.898,-58.683 12.5,-22.094 21.957,-46.446 28.344,-73.059 7.984,-33.008 10.641,-65.207 7.984,-96.609 -2.668,-31.41 -10.117,-62.801 -22.355,-94.211 -4.266,-11.18 -9.582,-21.559 -15.969,-31.137 -6.387,-9.582 -13.574,-18.891 -21.558,-27.941 -35.665,-37.789 -77.184,-66.27 -124.551,-85.43 -9.582,-4.262 -19.438,-7.992 -29.543,-11.18 -10.117,-3.203 -20.496,-5.851 -31.137,-7.992 -1.598,-0.519 -4.266,-0.801 -7.984,-0.801 -14.91,0 -29.817,-0.117 -44.711,-0.398 -14.91,-0.262 -29.817,0.398 -44.711,2 -21.832,1.601 -40.996,7.719 -57.488,18.371 -22.356,13.309 -45.247,28.219 -68.665,44.711 -28.742,20.226 -50.574,47.098 -65.4683,80.637 -26.625,57.48 -36.4687,116.57 -29.5429,177.25 2.121,18.089 5.5898,35.652 10.3789,52.695 4.789,17.023 12.5,33.254 23.1562,48.699 5.8481,9.047 11.1761,14.238 15.9691,15.57 4.789,1.325 11.972,-0.671 21.554,-5.988 4.789,-2.668 9.047,-5.59 12.774,-8.781 8.508,-6.387 10.906,-14.371 7.187,-23.953 -0.539,-2.668 -1.336,-4.926 -2.394,-6.785 -1.074,-1.871 -2.133,-3.868 -3.196,-5.989 -6.386,-10.656 -11.449,-21.957 -15.168,-33.937 -3.73,-11.969 -6.386,-24.09 -7.984,-36.32 -1.074,-7.461 -1.996,-15.051 -2.797,-22.758 -0.797,-7.723 -0.933,-15.571 -0.398,-23.551 0.523,-9.582 1.996,-19.16 4.39,-28.742 2.395,-9.59 5.192,-18.899 8.387,-27.949 2.121,-5.329 4.117,-10.641 5.988,-15.969 1.856,-5.313 3.856,-10.641 5.985,-15.973 6.914,-20.758 18.89,-38.316 35.929,-52.687 3.196,-2.661 6.512,-5.321 9.985,-7.993 3.453,-2.66 6.508,-5.308 9.18,-7.976 10.64,-10.641 22.476,-18.762 35.531,-24.352 13.035,-5.59 26.472,-10.511 40.32,-14.769 18.621,-5.321 36.988,-8.391 55.09,-9.192 18.086,-0.8 36.453,0.141 55.09,2.801 3.191,0.539 6.25,1.328 9.179,2.391 2.922,1.078 5.715,2.14 8.387,3.199 7.985,3.191 15.828,6.52 23.551,9.98 7.711,3.469 15.57,6.782 23.555,9.981 12.238,5.328 23.015,11.848 32.336,19.559 9.304,7.718 17.691,16.64 25.152,26.75 8.508,11.171 16.09,22.75 22.75,34.73 6.648,11.969 12.102,24.621 16.367,37.922 2.66,7.988 4.793,15.969 6.391,23.949 1.594,7.988 3.191,15.969 4.789,23.961 1.597,7.977 1.996,15.828 1.195,23.547 -0.797,7.711 -1.469,15.293 -1.992,22.762 -1.074,12.23 -3.332,24.347 -6.785,36.328 -3.473,11.972 -7.063,24.07 -10.781,36.324 -2.668,6.91 -6.922,13.57 -12.774,19.957 -5.863,6.91 -11.578,13.84 -17.168,20.762 -5.586,6.914 -10.777,14.097 -15.566,21.558 -3.735,5.852 -7.864,10.778 -12.375,14.77 -4.532,3.992 -9.723,7.848 -15.574,11.578 -12.25,7.445 -24.887,13.973 -37.922,19.559 -13.047,5.589 -26.485,10.503 -40.321,14.769 -11.715,3.719 -24.226,4.793 -37.523,3.195 -5.328,-1.074 -9.582,-2.793 -12.777,-5.191 -3.192,-2.395 -5.329,-7.059 -6.387,-13.969 -2.133,-11.715 -3.469,-23.429 -3.992,-35.133 -0.536,-11.71 -0.797,-23.687 -0.797,-35.929 -1.074,-24.489 -1.735,-48.84 -1.996,-73.047 -0.278,-24.231 -0.676,-48.582 -1.2,-73.063 -0.535,-13.847 -2.132,-27.937 -4.789,-42.32 0,-3.187 -1.597,-6.918 -4.793,-11.168 -1.593,-2.141 -4.527,-3.73 -8.781,-4.793 -4.265,-1.078 -8.781,-1.867 -13.57,-2.398 -4.793,-0.539 -9.457,-0.399 -13.977,0.402 -4.527,0.797 -7.855,1.996 -9.976,3.59 -4.793,4.789 -7.723,11.699 -8.785,20.758 v 19.16 c 1.062,18.629 1.195,36.851 0.398,54.699 -0.797,17.82 -1.473,35.793 -1.996,53.891 0,20.222 -0.535,40.179 -1.598,59.879 -1.07,19.687 -0.535,39.648 1.598,59.882 1.059,11.704 1.723,23.278 1.996,34.731 0.262,11.441 0.125,23.019 -0.398,34.73 0,4.789 0,9.446 0,13.973 0,4.516 0.523,9.184 1.597,13.973 2.121,12.238 3.192,25.812 3.192,40.718 0,2.661 0,5.317 0,7.985 0,2.66 0.523,5.312 1.597,7.984 3.196,9.047 9.047,15.172 17.567,18.363 4.254,1.063 8.508,1.598 12.773,1.598 4.258,0 8.508,-0.277 12.774,-0.801 3.718,-0.535 6.789,-1.992 9.183,-4.39 2.395,-2.395 4.117,-5.188 5.192,-8.383 3.714,-9.059 5.589,-18.363 5.589,-27.942 v -27.148 c 0,-6.387 1.059,-10.777 3.192,-13.176 2.121,-2.39 6.914,-3.328 14.371,-2.793 5.851,0 11.441,1.063 16.766,3.196 5.316,2.121 10.644,4.789 15.968,7.984 11.176,6.91 19.961,14.77 26.352,23.551 6.387,8.785 10.898,18.09 13.57,27.949 2.656,9.84 3.856,19.684 3.594,29.539 -0.274,9.844 -1.734,19.028 -4.391,27.548 -5.328,17.03 -15.968,31.4 -31.937,43.11 -8.524,6.39 -17.442,11.3 -26.75,14.77 -9.317,3.46 -19.035,6.25 -29.141,8.38 -10.117,1.6 -19.961,0.8 -29.543,-2.39 -7.457,-2.67 -14.906,-5.32 -22.355,-7.98 -7.457,-2.67 -14.11,-6.66 -19.961,-11.98 -4.262,-3.19 -7.985,-3.47 -11.176,-0.8 -5.863,4.79 -11.715,9.58 -17.566,14.37 -5.864,4.79 -10.653,10.64 -14.371,17.57 -2.668,4.25 -3.727,7.18 -3.196,8.78 0.528,1.6 3.196,3.46 7.985,5.59 9.046,3.72 17.964,7.84 26.75,12.38 8.781,4.51 17.687,9.7 26.746,15.57 4.254,2.65 8.91,4.39 13.972,5.18 5.051,0.8 10.243,1.73 15.571,2.8 l 19.164,2.4 c 13.297,2.65 25.808,1.59 37.523,-3.2 18.625,-6.92 35.93,-14.11 51.899,-21.55 10.636,-5.33 20.48,-12.52 29.539,-21.56 10.64,-12.26 20.086,-24.89 28.343,-37.93 8.246,-13.05 13.696,-28.08 16.368,-45.11 1.597,-11.717 1.996,-23.155 1.199,-34.335 -0.801,-11.175 -2.535,-22.355 -5.192,-33.531 -3.191,-15.445 -9.582,-29.277 -19.16,-41.519 -6.386,-10.114 -13.051,-19.161 -19.961,-27.145" /><path
         id="path16"
         style="fill:#d3cd94;fill-opacity:1;fill-rule:nonzero;stroke:none"
         d="m 136.34,1640.82 c 20.582,-119.63 77.457,-201.53 120.769,-248.6 -110.39,32.8 -193.152,130.44 -203.8434,248.6 z m 281.629,-249.19 c 42.129,46.95 97.91,129.03 118.504,249.19 h 87.402 c -10.758,-118.89 -94.488,-217 -205.906,-249.19 z m -45.692,-9.05 c -7.699,-0.9 -15.496,-1.42 -23.367,-1.7 v 259.94 H 510.055 C 485,1502.51 409.238,1417.08 372.277,1382.58 Z m -209.515,258.24 h 160.101 v -259.68 c -6.328,0.34 -12.609,0.81 -18.82,1.56 -38.105,34.5 -116.102,119.9 -141.281,258.12 z M 312.527,1329.4 v -118.29 h 52.086 v 118.29 c 174.555,13.35 312.528,159.55 312.528,337.47 l -26.043,26.04 H 26.043 L 0,1666.87 C 0,1488.95 137.973,1342.75 312.527,1329.4" /><path
         id="path18"
         style="fill:#d3cd94;fill-opacity:1;fill-rule:nonzero;stroke:none"
         d="M 364.613,52.082 V 94.3906 C 387.035,79.6289 415.539,65.4102 447.031,52.082 Z M 312.527,94.4883 V 52.082 h -82.242 c 36.02,15.2578 62.606,29.3985 82.242,42.4063 z M 606.555,50.9688 C 488.492,86.7383 376.496,137.18 366.883,158.922 c 0.012,-0.024 0.422,-0.981 0.422,-2.672 h -2.692 v 91.16 h -52.086 v -91.16 h -2.683 c 0,1.699 0.414,2.66 0.418,2.672 C 300.648,137.18 188.652,86.7383 70.5859,50.9688 58.2305,47.2188 50.4805,34.9883 52.3672,22.2305 54.2617,9.44922 65.2227,0 78.1328,0 h 247.4142 26.051 247.41 c 12.91,0 23.871,9.44922 25.765,22.2305 1.887,12.7578 -5.863,24.9883 -18.218,28.7383" /></g></g></svg>